<svg id="visual" viewBox="0 0 960 540" width="960" height="540" xmlns="http://www.w3.org/2000/svg" xmlns:xlink="http://www.w3.org/1999/xlink" version="1.1"><rect x="0" y="0" width="960" height="540" fill="#FFFBE0"></rect><g fill="#f5e501"><circle r="76" cx="239" cy="399"></circle><circle r="19" cx="369" cy="269"></circle><circle r="54" cx="55" cy="258"></circle><circle r="33" cx="872" cy="358"></circle><circle r="53" cx="129" cy="3"></circle><circle r="72" cx="501" cy="482"></circle><circle r="53" cx="782" cy="88"></circle><circle r="65" cx="668" cy="400"></circle><circle r="59" cx="530" cy="260"></circle><circle r="56" cx="174" cy="161"></circle><circle r="28" cx="507" cy="8"></circle><circle r="39" cx="624" cy="136"></circle><circle r="37" cx="348" cy="537"></circle><circle r="52" cx="949" cy="161"></circle><circle r="23" cx="393" cy="109"></circle><circle r="24" cx="866" cy="511"></circle><circle r="49" cx="20" cy="469"></circle><circle r="45" cx="280" cy="2"></circle><circle r="64" cx="767" cy="247"></circle><circle r="70" cx="927" cy="10"></circle></g></svg>